<svg width="879" height="588" viewBox="0 0 879 588" fill="none" xmlns="http://www.w3.org/2000/svg">
<path fill-rule="evenodd" clip-rule="evenodd" d="M357 85.6504V154.767H416.863L416.851 144.989L357 85.6504Z" fill="#326CF9"/>
<path fill-rule="evenodd" clip-rule="evenodd" d="M461.576 154.78H521.439V85.6611L461.59 145.003L461.576 154.78Z" fill="#326CF9"/>
<path fill-rule="evenodd" clip-rule="evenodd" d="M521.439 0.347168L439.395 81.6919L357 0V70.291L439.395 151.983L521.427 70.6499L521.439 0.347168Z" fill="#326CF9"/>
<path d="M77.8 237.255C76.5333 234.922 74.7 233.155 72.3 231.955C69.9667 230.688 67.2 230.055 64 230.055C58.4667 230.055 54.0333 231.888 50.7 235.555C47.3667 239.155 45.7 243.988 45.7 250.055C45.7 256.522 47.4333 261.588 50.9 265.255C54.4333 268.855 59.2667 270.655 65.4 270.655C69.6 270.655 73.1333 269.588 76 267.455C78.9333 265.322 81.0667 262.255 82.4 258.255H60.7V245.655H97.9V261.555C96.6333 265.822 94.4667 269.788 91.4 273.455C88.4 277.122 84.5667 280.088 79.9 282.355C75.2333 284.622 69.9667 285.755 64.1 285.755C57.1667 285.755 50.9667 284.255 45.5 281.255C40.1 278.188 35.8667 273.955 32.8 268.555C29.8 263.155 28.3 256.988 28.3 250.055C28.3 243.122 29.8 236.955 32.8 231.555C35.8667 226.088 40.1 221.855 45.5 218.855C50.9 215.788 57.0667 214.255 64 214.255C72.4 214.255 79.4667 216.288 85.2 220.355C91 224.422 94.8333 230.055 96.7 237.255H77.8ZM159.972 256.455C159.972 258.055 159.872 259.722 159.672 261.455H120.972C121.239 264.922 122.339 267.588 124.272 269.455C126.272 271.255 128.705 272.155 131.572 272.155C135.839 272.155 138.805 270.355 140.472 266.755H158.672C157.739 270.422 156.039 273.722 153.572 276.655C151.172 279.588 148.139 281.888 144.472 283.555C140.805 285.222 136.705 286.055 132.172 286.055C126.705 286.055 121.839 284.888 117.572 282.555C113.305 280.222 109.972 276.888 107.572 272.555C105.172 268.222 103.972 263.155 103.972 257.355C103.972 251.555 105.139 246.488 107.472 242.155C109.872 237.822 113.205 234.488 117.472 232.155C121.739 229.822 126.639 228.655 132.172 228.655C137.572 228.655 142.372 229.788 146.572 232.055C150.772 234.322 154.039 237.555 156.372 241.755C158.772 245.955 159.972 250.855 159.972 256.455ZM142.472 251.955C142.472 249.022 141.472 246.688 139.472 244.955C137.472 243.222 134.972 242.355 131.972 242.355C129.105 242.355 126.672 243.188 124.672 244.855C122.739 246.522 121.539 248.888 121.072 251.955H142.472ZM200.093 270.755V285.255H191.393C185.193 285.255 180.36 283.755 176.893 280.755C173.426 277.688 171.693 272.722 171.693 265.855V243.655H164.893V229.455H171.693V215.855H188.793V229.455H199.993V243.655H188.793V266.055C188.793 267.722 189.193 268.922 189.993 269.655C190.793 270.388 192.126 270.755 193.993 270.755H200.093ZM256.209 285.955C251.076 285.955 246.476 285.122 242.409 283.455C238.343 281.788 235.076 279.322 232.609 276.055C230.209 272.788 228.943 268.855 228.809 264.255H247.009C247.276 266.855 248.176 268.855 249.709 270.255C251.243 271.588 253.243 272.255 255.709 272.255C258.243 272.255 260.243 271.688 261.709 270.555C263.176 269.355 263.909 267.722 263.909 265.655C263.909 263.922 263.309 262.488 262.109 261.355C260.976 260.222 259.543 259.288 257.809 258.555C256.143 257.822 253.743 256.988 250.609 256.055C246.076 254.655 242.376 253.255 239.509 251.855C236.643 250.455 234.176 248.388 232.109 245.655C230.043 242.922 229.009 239.355 229.009 234.955C229.009 228.422 231.376 223.322 236.109 219.655C240.843 215.922 247.009 214.055 254.609 214.055C262.343 214.055 268.576 215.922 273.309 219.655C278.043 223.322 280.576 228.455 280.909 235.055H262.409C262.276 232.788 261.443 231.022 259.909 229.755C258.376 228.422 256.409 227.755 254.009 227.755C251.943 227.755 250.276 228.322 249.009 229.455C247.743 230.522 247.109 232.088 247.109 234.155C247.109 236.422 248.176 238.188 250.309 239.455C252.443 240.722 255.776 242.088 260.309 243.555C264.843 245.088 268.509 246.555 271.309 247.955C274.176 249.355 276.643 251.388 278.709 254.055C280.776 256.722 281.809 260.155 281.809 264.355C281.809 268.355 280.776 271.988 278.709 275.255C276.709 278.522 273.776 281.122 269.909 283.055C266.043 284.988 261.476 285.955 256.209 285.955ZM323.433 270.755V285.255H314.733C308.533 285.255 303.699 283.755 300.233 280.755C296.766 277.688 295.033 272.722 295.033 265.855V243.655H288.233V229.455H295.033V215.855H312.133V229.455H323.333V243.655H312.133V266.055C312.133 267.722 312.533 268.922 313.333 269.655C314.133 270.388 315.466 270.755 317.333 270.755H323.433ZM329.558 257.255C329.558 251.522 330.624 246.488 332.758 242.155C334.958 237.822 337.924 234.488 341.658 232.155C345.391 229.822 349.558 228.655 354.158 228.655C358.091 228.655 361.524 229.455 364.458 231.055C367.458 232.655 369.758 234.755 371.358 237.355V229.455H388.458V285.255H371.358V277.355C369.691 279.955 367.358 282.055 364.358 283.655C361.424 285.255 357.991 286.055 354.058 286.055C349.524 286.055 345.391 284.888 341.658 282.555C337.924 280.155 334.958 276.788 332.758 272.455C330.624 268.055 329.558 262.988 329.558 257.255ZM371.358 257.355C371.358 253.088 370.158 249.722 367.758 247.255C365.424 244.788 362.558 243.555 359.158 243.555C355.758 243.555 352.858 244.788 350.458 247.255C348.124 249.655 346.958 252.988 346.958 257.255C346.958 261.522 348.124 264.922 350.458 267.455C352.858 269.922 355.758 271.155 359.158 271.155C362.558 271.155 365.424 269.922 367.758 267.455C370.158 264.988 371.358 261.622 371.358 257.355ZM417.929 238.755C419.929 235.688 422.429 233.288 425.429 231.555C428.429 229.755 431.762 228.855 435.429 228.855V246.955H430.729C426.462 246.955 423.262 247.888 421.129 249.755C418.996 251.555 417.929 254.755 417.929 259.355V285.255H400.829V229.455H417.929V238.755ZM474.702 270.755V285.255H466.002C459.802 285.255 454.969 283.755 451.502 280.755C448.036 277.688 446.302 272.722 446.302 265.855V243.655H439.502V229.455H446.302V215.855H463.402V229.455H474.602V243.655H463.402V266.055C463.402 267.722 463.802 268.922 464.602 269.655C465.402 270.388 466.736 270.755 468.602 270.755H474.702ZM536.827 256.455C536.827 258.055 536.727 259.722 536.527 261.455H497.827C498.094 264.922 499.194 267.588 501.127 269.455C503.127 271.255 505.561 272.155 508.427 272.155C512.694 272.155 515.661 270.355 517.327 266.755H535.527C534.594 270.422 532.894 273.722 530.427 276.655C528.027 279.588 524.994 281.888 521.327 283.555C517.661 285.222 513.561 286.055 509.027 286.055C503.561 286.055 498.694 284.888 494.427 282.555C490.161 280.222 486.827 276.888 484.427 272.555C482.027 268.222 480.827 263.155 480.827 257.355C480.827 251.555 481.994 246.488 484.327 242.155C486.727 237.822 490.061 234.488 494.327 232.155C498.594 229.822 503.494 228.655 509.027 228.655C514.427 228.655 519.227 229.788 523.427 232.055C527.627 234.322 530.894 237.555 533.227 241.755C535.627 245.955 536.827 250.855 536.827 256.455ZM519.327 251.955C519.327 249.022 518.327 246.688 516.327 244.955C514.327 243.222 511.827 242.355 508.827 242.355C505.961 242.355 503.527 243.188 501.527 244.855C499.594 246.522 498.394 248.888 497.927 251.955H519.327ZM542.448 257.255C542.448 251.522 543.515 246.488 545.648 242.155C547.848 237.822 550.815 234.488 554.548 232.155C558.282 229.822 562.448 228.655 567.048 228.655C570.715 228.655 574.048 229.422 577.048 230.955C580.115 232.488 582.515 234.555 584.248 237.155V211.255H601.348V285.255H584.248V277.255C582.648 279.922 580.348 282.055 577.348 283.655C574.415 285.255 570.982 286.055 567.048 286.055C562.448 286.055 558.282 284.888 554.548 282.555C550.815 280.155 547.848 276.788 545.648 272.455C543.515 268.055 542.448 262.988 542.448 257.255ZM584.248 257.355C584.248 253.088 583.048 249.722 580.648 247.255C578.315 244.788 575.448 243.555 572.048 243.555C568.648 243.555 565.748 244.788 563.348 247.255C561.015 249.655 559.848 252.988 559.848 257.255C559.848 261.522 561.015 264.922 563.348 267.455C565.748 269.922 568.648 271.155 572.048 271.155C575.448 271.155 578.315 269.922 580.648 267.455C583.048 264.988 584.248 261.622 584.248 257.355ZM697.711 285.255H680.611L652.011 241.955V285.255H634.911V215.055H652.011L680.611 258.555V215.055H697.711V285.255ZM735.506 286.055C730.04 286.055 725.106 284.888 720.706 282.555C716.373 280.222 712.94 276.888 710.406 272.555C707.94 268.222 706.706 263.155 706.706 257.355C706.706 251.622 707.973 246.588 710.506 242.255C713.04 237.855 716.506 234.488 720.906 232.155C725.306 229.822 730.24 228.655 735.706 228.655C741.173 228.655 746.106 229.822 750.506 232.155C754.906 234.488 758.373 237.855 760.906 242.255C763.44 246.588 764.706 251.622 764.706 257.355C764.706 263.088 763.406 268.155 760.806 272.555C758.273 276.888 754.773 280.222 750.306 282.555C745.906 284.888 740.973 286.055 735.506 286.055ZM735.506 271.255C738.773 271.255 741.54 270.055 743.806 267.655C746.14 265.255 747.306 261.822 747.306 257.355C747.306 252.888 746.173 249.455 743.906 247.055C741.706 244.655 738.973 243.455 735.706 243.455C732.373 243.455 729.606 244.655 727.406 247.055C725.206 249.388 724.106 252.822 724.106 257.355C724.106 261.822 725.173 265.255 727.306 267.655C729.506 270.055 732.24 271.255 735.506 271.255ZM853.878 229.455L838.778 285.255H819.878L811.078 249.055L801.978 285.255H783.178L767.978 229.455H785.078L792.978 269.355L802.378 229.455H820.478L829.978 269.155L837.778 229.455H853.878Z" fill="white"/>
<path d="M12.814 371.556C10.836 371.556 9.05867 371.212 7.482 370.524C5.934 369.807 4.71567 368.833 3.827 367.6C2.93833 366.339 2.47967 364.891 2.451 363.257H6.622C6.76533 364.662 7.33867 365.851 8.342 366.826C9.374 367.772 10.8647 368.245 12.814 368.245C14.6773 368.245 16.1393 367.786 17.2 366.869C18.2893 365.923 18.834 364.719 18.834 363.257C18.834 362.11 18.5187 361.179 17.888 360.462C17.2573 359.745 16.469 359.201 15.523 358.828C14.577 358.455 13.3013 358.054 11.696 357.624C9.718 357.108 8.127 356.592 6.923 356.076C5.74767 355.56 4.73 354.757 3.87 353.668C3.03867 352.55 2.623 351.059 2.623 349.196C2.623 347.562 3.03867 346.114 3.87 344.853C4.70133 343.592 5.86233 342.617 7.353 341.929C8.87233 341.241 10.6067 340.897 12.556 340.897C15.3653 340.897 17.6587 341.599 19.436 343.004C21.242 344.409 22.2597 346.272 22.489 348.594H18.189C18.0457 347.447 17.4437 346.444 16.383 345.584C15.3223 344.695 13.9177 344.251 12.169 344.251C10.535 344.251 9.202 344.681 8.17 345.541C7.138 346.372 6.622 347.548 6.622 349.067C6.622 350.156 6.923 351.045 7.525 351.733C8.15567 352.421 8.91533 352.951 9.804 353.324C10.7213 353.668 11.997 354.069 13.631 354.528C15.609 355.073 17.2 355.617 18.404 356.162C19.608 356.678 20.64 357.495 21.5 358.613C22.36 359.702 22.79 361.193 22.79 363.085C22.79 364.547 22.403 365.923 21.629 367.213C20.855 368.503 19.7083 369.549 18.189 370.352C16.6697 371.155 14.878 371.556 12.814 371.556ZM50.0483 358.57C50.0483 359.315 50.0053 360.104 49.9193 360.935H31.0853C31.2286 363.257 32.017 365.077 33.4503 366.396C34.9123 367.686 36.6753 368.331 38.7393 368.331C40.4306 368.331 41.8353 367.944 42.9533 367.17C44.1 366.367 44.9026 365.307 45.3613 363.988H49.5753C48.9446 366.253 47.6833 368.102 45.7913 369.535C43.8993 370.94 41.5486 371.642 38.7393 371.642C36.5033 371.642 34.4966 371.14 32.7193 370.137C30.9706 369.134 29.5946 367.715 28.5913 365.88C27.588 364.017 27.0863 361.867 27.0863 359.43C27.0863 356.993 27.5736 354.858 28.5483 353.023C29.523 351.188 30.8846 349.784 32.6333 348.809C34.4106 347.806 36.446 347.304 38.7393 347.304C40.9753 347.304 42.9533 347.791 44.6733 348.766C46.3933 349.741 47.712 351.088 48.6293 352.808C49.5753 354.499 50.0483 356.42 50.0483 358.57ZM46.0063 357.753C46.0063 356.262 45.6766 354.987 45.0173 353.926C44.358 352.837 43.455 352.02 42.3083 351.475C41.1903 350.902 39.9433 350.615 38.5673 350.615C36.5893 350.615 34.898 351.246 33.4933 352.507C32.1173 353.768 31.329 355.517 31.1283 357.753H46.0063ZM59.9863 350.916V364.805C59.9863 365.952 60.23 366.769 60.7173 367.256C61.2047 367.715 62.0503 367.944 63.2543 367.944H66.1353V371.255H62.6093C60.4307 371.255 58.7967 370.753 57.7073 369.75C56.618 368.747 56.0733 367.098 56.0733 364.805V350.916H53.0203V347.691H56.0733V341.757H59.9863V347.691H66.1353V350.916H59.9863ZM91.7744 347.691V371.255H87.8614V367.772C87.1161 368.976 86.0698 369.922 84.7224 370.61C83.4038 371.269 81.9418 371.599 80.3364 371.599C78.5018 371.599 76.8534 371.226 75.3914 370.481C73.9294 369.707 72.7684 368.56 71.9084 367.041C71.0771 365.522 70.6614 363.673 70.6614 361.494V347.691H74.5314V360.978C74.5314 363.3 75.1191 365.092 76.2944 366.353C77.4698 367.586 79.0751 368.202 81.1104 368.202C83.2031 368.202 84.8514 367.557 86.0554 366.267C87.2594 364.977 87.8614 363.099 87.8614 360.634V347.691H91.7744ZM102.294 352.034C103.068 350.687 104.215 349.569 105.734 348.68C107.282 347.763 109.074 347.304 111.109 347.304C113.202 347.304 115.094 347.806 116.785 348.809C118.505 349.812 119.853 351.231 120.827 353.066C121.802 354.872 122.289 356.979 122.289 359.387C122.289 361.766 121.802 363.888 120.827 365.751C119.853 367.614 118.505 369.062 116.785 370.094C115.094 371.126 113.202 371.642 111.109 371.642C109.103 371.642 107.325 371.198 105.777 370.309C104.258 369.392 103.097 368.259 102.294 366.912V382.435H98.3813V347.691H102.294V352.034ZM118.29 359.387C118.29 357.61 117.932 356.062 117.215 354.743C116.499 353.424 115.524 352.421 114.291 351.733C113.087 351.045 111.754 350.701 110.292 350.701C108.859 350.701 107.526 351.059 106.293 351.776C105.089 352.464 104.115 353.482 103.369 354.829C102.653 356.148 102.294 357.681 102.294 359.43C102.294 361.207 102.653 362.77 103.369 364.117C104.115 365.436 105.089 366.453 106.293 367.17C107.526 367.858 108.859 368.202 110.292 368.202C111.754 368.202 113.087 367.858 114.291 367.17C115.524 366.453 116.499 365.436 117.215 364.117C117.932 362.77 118.29 361.193 118.29 359.387ZM140.925 343.864C140.179 343.864 139.549 343.606 139.033 343.09C138.517 342.574 138.259 341.943 138.259 341.198C138.259 340.453 138.517 339.822 139.033 339.306C139.549 338.79 140.179 338.532 140.925 338.532C141.641 338.532 142.243 338.79 142.731 339.306C143.247 339.822 143.505 340.453 143.505 341.198C143.505 341.943 143.247 342.574 142.731 343.09C142.243 343.606 141.641 343.864 140.925 343.864ZM142.817 347.691V371.255H138.904V347.691H142.817ZM157.828 371.642C156.022 371.642 154.402 371.341 152.969 370.739C151.535 370.108 150.403 369.248 149.572 368.159C148.74 367.041 148.282 365.765 148.196 364.332H152.238C152.352 365.507 152.897 366.468 153.872 367.213C154.875 367.958 156.179 368.331 157.785 368.331C159.275 368.331 160.451 368.001 161.311 367.342C162.171 366.683 162.601 365.851 162.601 364.848C162.601 363.816 162.142 363.056 161.225 362.569C160.307 362.053 158.888 361.551 156.968 361.064C155.219 360.605 153.786 360.147 152.668 359.688C151.578 359.201 150.632 358.498 149.83 357.581C149.056 356.635 148.669 355.402 148.669 353.883C148.669 352.679 149.027 351.575 149.744 350.572C150.46 349.569 151.478 348.78 152.797 348.207C154.115 347.605 155.62 347.304 157.312 347.304C159.92 347.304 162.027 347.963 163.633 349.282C165.238 350.601 166.098 352.407 166.213 354.7H162.3C162.214 353.467 161.712 352.478 160.795 351.733C159.906 350.988 158.702 350.615 157.183 350.615C155.778 350.615 154.66 350.916 153.829 351.518C152.997 352.12 152.582 352.908 152.582 353.883C152.582 354.657 152.825 355.302 153.313 355.818C153.829 356.305 154.459 356.707 155.205 357.022C155.979 357.309 157.039 357.638 158.387 358.011C160.078 358.47 161.454 358.928 162.515 359.387C163.575 359.817 164.478 360.476 165.224 361.365C165.998 362.254 166.399 363.415 166.428 364.848C166.428 366.138 166.069 367.299 165.353 368.331C164.636 369.363 163.618 370.18 162.3 370.782C161.01 371.355 159.519 371.642 157.828 371.642ZM204.915 358.57C204.915 359.315 204.872 360.104 204.786 360.935H185.952C186.096 363.257 186.884 365.077 188.317 366.396C189.779 367.686 191.542 368.331 193.606 368.331C195.298 368.331 196.702 367.944 197.82 367.17C198.967 366.367 199.77 365.307 200.228 363.988H204.442C203.812 366.253 202.55 368.102 200.658 369.535C198.766 370.94 196.416 371.642 193.606 371.642C191.37 371.642 189.364 371.14 187.586 370.137C185.838 369.134 184.462 367.715 183.458 365.88C182.455 364.017 181.953 361.867 181.953 359.43C181.953 356.993 182.441 354.858 183.415 353.023C184.39 351.188 185.752 349.784 187.5 348.809C189.278 347.806 191.313 347.304 193.606 347.304C195.842 347.304 197.82 347.791 199.54 348.766C201.26 349.741 202.579 351.088 203.496 352.808C204.442 354.499 204.915 356.42 204.915 358.57ZM200.873 357.753C200.873 356.262 200.544 354.987 199.884 353.926C199.225 352.837 198.322 352.02 197.175 351.475C196.057 350.902 194.81 350.615 193.434 350.615C191.456 350.615 189.765 351.246 188.36 352.507C186.984 353.768 186.196 355.517 185.995 357.753H200.873ZM208.619 359.387C208.619 356.979 209.106 354.872 210.081 353.066C211.055 351.231 212.388 349.812 214.08 348.809C215.8 347.806 217.706 347.304 219.799 347.304C221.863 347.304 223.654 347.748 225.174 348.637C226.693 349.526 227.825 350.644 228.571 351.991V347.691H232.527V371.255H228.571V366.869C227.797 368.245 226.636 369.392 225.088 370.309C223.568 371.198 221.791 371.642 219.756 371.642C217.663 371.642 215.771 371.126 214.08 370.094C212.388 369.062 211.055 367.614 210.081 365.751C209.106 363.888 208.619 361.766 208.619 359.387ZM228.571 359.43C228.571 357.653 228.212 356.105 227.496 354.786C226.779 353.467 225.804 352.464 224.572 351.776C223.368 351.059 222.035 350.701 220.573 350.701C219.111 350.701 217.778 351.045 216.574 351.733C215.37 352.421 214.409 353.424 213.693 354.743C212.976 356.062 212.618 357.61 212.618 359.387C212.618 361.193 212.976 362.77 213.693 364.117C214.409 365.436 215.37 366.453 216.574 367.17C217.778 367.858 219.111 368.202 220.573 368.202C222.035 368.202 223.368 367.858 224.572 367.17C225.804 366.453 226.779 365.436 227.496 364.117C228.212 362.77 228.571 361.207 228.571 359.43ZM247.481 371.642C245.675 371.642 244.055 371.341 242.622 370.739C241.189 370.108 240.056 369.248 239.225 368.159C238.394 367.041 237.935 365.765 237.849 364.332H241.891C242.006 365.507 242.55 366.468 243.525 367.213C244.528 367.958 245.833 368.331 247.438 368.331C248.929 368.331 250.104 368.001 250.964 367.342C251.824 366.683 252.254 365.851 252.254 364.848C252.254 363.816 251.795 363.056 250.878 362.569C249.961 362.053 248.542 361.551 246.621 361.064C244.872 360.605 243.439 360.147 242.321 359.688C241.232 359.201 240.286 358.498 239.483 357.581C238.709 356.635 238.322 355.402 238.322 353.883C238.322 352.679 238.68 351.575 239.397 350.572C240.114 349.569 241.131 348.78 242.45 348.207C243.769 347.605 245.274 347.304 246.965 347.304C249.574 347.304 251.681 347.963 253.286 349.282C254.891 350.601 255.751 352.407 255.866 354.7H251.953C251.867 353.467 251.365 352.478 250.448 351.733C249.559 350.988 248.355 350.615 246.836 350.615C245.431 350.615 244.313 350.916 243.482 351.518C242.651 352.12 242.235 352.908 242.235 353.883C242.235 354.657 242.479 355.302 242.966 355.818C243.482 356.305 244.113 356.707 244.858 357.022C245.632 357.309 246.693 357.638 248.04 358.011C249.731 358.47 251.107 358.928 252.168 359.387C253.229 359.817 254.132 360.476 254.877 361.365C255.651 362.254 256.052 363.415 256.081 364.848C256.081 366.138 255.723 367.299 255.006 368.331C254.289 369.363 253.272 370.18 251.953 370.782C250.663 371.355 249.172 371.642 247.481 371.642ZM281.901 347.691L267.711 382.349H263.669L268.313 370.997L258.81 347.691H263.153L270.549 366.783L277.859 347.691H281.901ZM295.836 359.387C295.836 356.979 296.324 354.872 297.298 353.066C298.273 351.231 299.606 349.812 301.297 348.809C303.017 347.806 304.924 347.304 307.016 347.304C309.08 347.304 310.872 347.748 312.391 348.637C313.911 349.526 315.043 350.644 315.788 351.991V347.691H319.744V371.255H315.788V366.869C315.014 368.245 313.853 369.392 312.305 370.309C310.786 371.198 309.009 371.642 306.973 371.642C304.881 371.642 302.989 371.126 301.297 370.094C299.606 369.062 298.273 367.614 297.298 365.751C296.324 363.888 295.836 361.766 295.836 359.387ZM315.788 359.43C315.788 357.653 315.43 356.105 314.713 354.786C313.997 353.467 313.022 352.464 311.789 351.776C310.585 351.059 309.252 350.701 307.79 350.701C306.328 350.701 304.995 351.045 303.791 351.733C302.587 352.421 301.627 353.424 300.91 354.743C300.194 356.062 299.835 357.61 299.835 359.387C299.835 361.193 300.194 362.77 300.91 364.117C301.627 365.436 302.587 366.453 303.791 367.17C304.995 367.858 306.328 368.202 307.79 368.202C309.252 368.202 310.585 367.858 311.789 367.17C313.022 366.453 313.997 365.436 314.713 364.117C315.43 362.77 315.788 361.207 315.788 359.43ZM337.838 347.261C340.705 347.261 343.027 348.135 344.804 349.884C346.581 351.604 347.47 354.098 347.47 357.366V371.255H343.6V357.925C343.6 355.574 343.012 353.783 341.837 352.55C340.662 351.289 339.056 350.658 337.021 350.658C334.957 350.658 333.309 351.303 332.076 352.593C330.872 353.883 330.27 355.761 330.27 358.226V371.255H326.357V347.691H330.27V351.045C331.044 349.841 332.09 348.909 333.409 348.25C334.756 347.591 336.233 347.261 337.838 347.261ZM352.4 359.387C352.4 356.979 352.887 354.872 353.862 353.066C354.836 351.231 356.169 349.812 357.861 348.809C359.581 347.806 361.501 347.304 363.623 347.304C365.457 347.304 367.163 347.734 368.74 348.594C370.316 349.425 371.52 350.529 372.352 351.905V339.435H376.308V371.255H372.352V366.826C371.578 368.231 370.431 369.392 368.912 370.309C367.392 371.198 365.615 371.642 363.58 371.642C361.487 371.642 359.581 371.126 357.861 370.094C356.169 369.062 354.836 367.614 353.862 365.751C352.887 363.888 352.4 361.766 352.4 359.387ZM372.352 359.43C372.352 357.653 371.993 356.105 371.277 354.786C370.56 353.467 369.585 352.464 368.353 351.776C367.149 351.059 365.816 350.701 364.354 350.701C362.892 350.701 361.559 351.045 360.355 351.733C359.151 352.421 358.19 353.424 357.474 354.743C356.757 356.062 356.399 357.61 356.399 359.387C356.399 361.193 356.757 362.77 357.474 364.117C358.19 365.436 359.151 366.453 360.355 367.17C361.559 367.858 362.892 368.202 364.354 368.202C365.816 368.202 367.149 367.858 368.353 367.17C369.585 366.453 370.56 365.436 371.277 364.117C371.993 362.77 372.352 361.207 372.352 359.43ZM399.157 350.916V364.805C399.157 365.952 399.401 366.769 399.888 367.256C400.376 367.715 401.221 367.944 402.425 367.944H405.306V371.255H401.78C399.602 371.255 397.968 370.753 396.878 369.75C395.789 368.747 395.244 367.098 395.244 364.805V350.916H392.191V347.691H395.244V341.757H399.157V347.691H405.306V350.916H399.157ZM408.585 359.387C408.585 356.979 409.073 354.872 410.047 353.066C411.022 351.231 412.355 349.812 414.046 348.809C415.766 347.806 417.673 347.304 419.765 347.304C421.829 347.304 423.621 347.748 425.14 348.637C426.66 349.526 427.792 350.644 428.537 351.991V347.691H432.493V371.255H428.537V366.869C427.763 368.245 426.602 369.392 425.054 370.309C423.535 371.198 421.758 371.642 419.722 371.642C417.63 371.642 415.738 371.126 414.046 370.094C412.355 369.062 411.022 367.614 410.047 365.751C409.073 363.888 408.585 361.766 408.585 359.387ZM428.537 359.43C428.537 357.653 428.179 356.105 427.462 354.786C426.746 353.467 425.771 352.464 424.538 351.776C423.334 351.059 422.001 350.701 420.539 350.701C419.077 350.701 417.744 351.045 416.54 351.733C415.336 352.421 414.376 353.424 413.659 354.743C412.943 356.062 412.584 357.61 412.584 359.387C412.584 361.193 412.943 362.77 413.659 364.117C414.376 365.436 415.336 366.453 416.54 367.17C417.744 367.858 419.077 368.202 420.539 368.202C422.001 368.202 423.334 367.858 424.538 367.17C425.771 366.453 426.746 365.436 427.462 364.117C428.179 362.77 428.537 361.207 428.537 359.43ZM452.264 371.255L443.019 360.849V371.255H439.106V339.435H443.019V358.14L452.092 347.691H457.553L446.459 359.43L457.596 371.255H452.264ZM482.736 358.57C482.736 359.315 482.693 360.104 482.607 360.935H463.773C463.916 363.257 464.704 365.077 466.138 366.396C467.6 367.686 469.363 368.331 471.427 368.331C473.118 368.331 474.523 367.944 475.641 367.17C476.787 366.367 477.59 365.307 478.049 363.988H482.263C481.632 366.253 480.371 368.102 478.479 369.535C476.587 370.94 474.236 371.642 471.427 371.642C469.191 371.642 467.184 371.14 465.407 370.137C463.658 369.134 462.282 367.715 461.279 365.88C460.275 364.017 459.774 361.867 459.774 359.43C459.774 356.993 460.261 354.858 461.236 353.023C462.21 351.188 463.572 349.784 465.321 348.809C467.098 347.806 469.133 347.304 471.427 347.304C473.663 347.304 475.641 347.791 477.361 348.766C479.081 349.741 480.399 351.088 481.317 352.808C482.263 354.499 482.736 356.42 482.736 358.57ZM478.694 357.753C478.694 356.262 478.364 354.987 477.705 353.926C477.045 352.837 476.142 352.02 474.996 351.475C473.878 350.902 472.631 350.615 471.255 350.615C469.277 350.615 467.585 351.246 466.181 352.507C464.805 353.768 464.016 355.517 463.816 357.753H478.694ZM496.243 371.642C494.437 371.642 492.817 371.341 491.384 370.739C489.951 370.108 488.818 369.248 487.987 368.159C487.156 367.041 486.697 365.765 486.611 364.332H490.653C490.768 365.507 491.312 366.468 492.287 367.213C493.29 367.958 494.595 368.331 496.2 368.331C497.691 368.331 498.866 368.001 499.726 367.342C500.586 366.683 501.016 365.851 501.016 364.848C501.016 363.816 500.557 363.056 499.64 362.569C498.723 362.053 497.304 361.551 495.383 361.064C493.634 360.605 492.201 360.147 491.083 359.688C489.994 359.201 489.048 358.498 488.245 357.581C487.471 356.635 487.084 355.402 487.084 353.883C487.084 352.679 487.442 351.575 488.159 350.572C488.876 349.569 489.893 348.78 491.212 348.207C492.531 347.605 494.036 347.304 495.727 347.304C498.336 347.304 500.443 347.963 502.048 349.282C503.653 350.601 504.513 352.407 504.628 354.7H500.715C500.629 353.467 500.127 352.478 499.21 351.733C498.321 350.988 497.117 350.615 495.598 350.615C494.193 350.615 493.075 350.916 492.244 351.518C491.413 352.12 490.997 352.908 490.997 353.883C490.997 354.657 491.241 355.302 491.728 355.818C492.244 356.305 492.875 356.707 493.62 357.022C494.394 357.309 495.455 357.638 496.802 358.011C498.493 358.47 499.869 358.928 500.93 359.387C501.991 359.817 502.894 360.476 503.639 361.365C504.413 362.254 504.814 363.415 504.843 364.848C504.843 366.138 504.485 367.299 503.768 368.331C503.051 369.363 502.034 370.18 500.715 370.782C499.425 371.355 497.934 371.642 496.243 371.642ZM542.729 347.691V371.255H538.816V367.772C538.07 368.976 537.024 369.922 535.677 370.61C534.358 371.269 532.896 371.599 531.291 371.599C529.456 371.599 527.808 371.226 526.346 370.481C524.884 369.707 523.723 368.56 522.863 367.041C522.031 365.522 521.616 363.673 521.616 361.494V347.691H525.486V360.978C525.486 363.3 526.073 365.092 527.249 366.353C528.424 367.586 530.029 368.202 532.065 368.202C534.157 368.202 535.806 367.557 537.01 366.267C538.214 364.977 538.816 363.099 538.816 360.634V347.691H542.729ZM560.816 347.261C563.683 347.261 566.005 348.135 567.782 349.884C569.56 351.604 570.448 354.098 570.448 357.366V371.255H566.578V357.925C566.578 355.574 565.991 353.783 564.815 352.55C563.64 351.289 562.035 350.658 559.999 350.658C557.935 350.658 556.287 351.303 555.054 352.593C553.85 353.883 553.248 355.761 553.248 358.226V371.255H549.335V347.691H553.248V351.045C554.022 349.841 555.069 348.909 556.387 348.25C557.735 347.591 559.211 347.261 560.816 347.261ZM575.378 359.387C575.378 356.979 575.866 354.872 576.84 353.066C577.815 351.231 579.148 349.812 580.839 348.809C582.559 347.806 584.48 347.304 586.601 347.304C588.436 347.304 590.142 347.734 591.718 348.594C593.295 349.425 594.499 350.529 595.33 351.905V339.435H599.286V371.255H595.33V366.826C594.556 368.231 593.41 369.392 591.89 370.309C590.371 371.198 588.594 371.642 586.558 371.642C584.466 371.642 582.559 371.126 580.839 370.094C579.148 369.062 577.815 367.614 576.84 365.751C575.866 363.888 575.378 361.766 575.378 359.387ZM595.33 359.43C595.33 357.653 594.972 356.105 594.255 354.786C593.539 353.467 592.564 352.464 591.331 351.776C590.127 351.059 588.794 350.701 587.332 350.701C585.87 350.701 584.537 351.045 583.333 351.733C582.129 352.421 581.169 353.424 580.452 354.743C579.736 356.062 579.377 357.61 579.377 359.387C579.377 361.193 579.736 362.77 580.452 364.117C581.169 365.436 582.129 366.453 583.333 367.17C584.537 367.858 585.87 368.202 587.332 368.202C588.794 368.202 590.127 367.858 591.331 367.17C592.564 366.453 593.539 365.436 594.255 364.117C594.972 362.77 595.33 361.207 595.33 359.43ZM627.399 358.57C627.399 359.315 627.356 360.104 627.27 360.935H608.436C608.579 363.257 609.368 365.077 610.801 366.396C612.263 367.686 614.026 368.331 616.09 368.331C617.781 368.331 619.186 367.944 620.304 367.17C621.451 366.367 622.253 365.307 622.712 363.988H626.926C626.295 366.253 625.034 368.102 623.142 369.535C621.25 370.94 618.899 371.642 616.09 371.642C613.854 371.642 611.847 371.14 610.07 370.137C608.321 369.134 606.945 367.715 605.942 365.88C604.939 364.017 604.437 361.867 604.437 359.43C604.437 356.993 604.924 354.858 605.899 353.023C606.874 351.188 608.235 349.784 609.984 348.809C611.761 347.806 613.797 347.304 616.09 347.304C618.326 347.304 620.304 347.791 622.024 348.766C623.744 349.741 625.063 351.088 625.98 352.808C626.926 354.499 627.399 356.42 627.399 358.57ZM623.357 357.753C623.357 356.262 623.027 354.987 622.368 353.926C621.709 352.837 620.806 352.02 619.659 351.475C618.541 350.902 617.294 350.615 615.918 350.615C613.94 350.615 612.249 351.246 610.844 352.507C609.468 353.768 608.68 355.517 608.479 357.753H623.357ZM636.477 351.518C637.165 350.171 638.14 349.124 639.401 348.379C640.691 347.634 642.253 347.261 644.088 347.261V351.303H643.056C638.67 351.303 636.477 353.682 636.477 358.441V371.255H632.564V347.691H636.477V351.518ZM679.247 343.563H664.154V353.367C664.813 352.45 665.788 351.704 667.078 351.131C668.368 350.529 669.758 350.228 671.249 350.228C673.628 350.228 675.563 350.73 677.054 351.733C678.544 352.708 679.605 353.983 680.236 355.56C680.895 357.108 681.225 358.756 681.225 360.505C681.225 362.569 680.838 364.418 680.064 366.052C679.29 367.686 678.1 368.976 676.495 369.922C674.918 370.868 672.954 371.341 670.604 371.341C667.594 371.341 665.157 370.567 663.294 369.019C661.43 367.471 660.298 365.407 659.897 362.827H663.724C664.096 364.461 664.885 365.737 666.089 366.654C667.293 367.571 668.812 368.03 670.647 368.03C672.911 368.03 674.617 367.356 675.764 366.009C676.91 364.633 677.484 362.827 677.484 360.591C677.484 358.355 676.91 356.635 675.764 355.431C674.617 354.198 672.926 353.582 670.69 353.582C669.17 353.582 667.837 353.955 666.691 354.7C665.573 355.417 664.756 356.406 664.24 357.667H660.542V340.123H679.247V343.563ZM726.871 347.261C728.705 347.261 730.339 347.648 731.773 348.422C733.206 349.167 734.338 350.3 735.17 351.819C736.001 353.338 736.417 355.187 736.417 357.366V371.255H732.547V357.925C732.547 355.574 731.959 353.783 730.784 352.55C729.637 351.289 728.075 350.658 726.097 350.658C724.061 350.658 722.442 351.317 721.238 352.636C720.034 353.926 719.432 355.804 719.432 358.269V371.255H715.562V357.925C715.562 355.574 714.974 353.783 713.799 352.55C712.652 351.289 711.09 350.658 709.112 350.658C707.076 350.658 705.457 351.317 704.253 352.636C703.049 353.926 702.447 355.804 702.447 358.269V371.255H698.534V347.691H702.447V351.088C703.221 349.855 704.253 348.909 705.543 348.25C706.861 347.591 708.309 347.261 709.886 347.261C711.864 347.261 713.612 347.705 715.132 348.594C716.651 349.483 717.783 350.787 718.529 352.507C719.188 350.844 720.277 349.554 721.797 348.637C723.316 347.72 725.007 347.261 726.871 347.261ZM744.856 343.864C744.111 343.864 743.48 343.606 742.964 343.09C742.448 342.574 742.19 341.943 742.19 341.198C742.19 340.453 742.448 339.822 742.964 339.306C743.48 338.79 744.111 338.532 744.856 338.532C745.573 338.532 746.175 338.79 746.662 339.306C747.178 339.822 747.436 340.453 747.436 341.198C747.436 341.943 747.178 342.574 746.662 343.09C746.175 343.606 745.573 343.864 744.856 343.864ZM746.748 347.691V371.255H742.835V347.691H746.748ZM764.898 347.261C767.765 347.261 770.087 348.135 771.864 349.884C773.642 351.604 774.53 354.098 774.53 357.366V371.255H770.66V357.925C770.66 355.574 770.073 353.783 768.897 352.55C767.722 351.289 766.117 350.658 764.081 350.658C762.017 350.658 760.369 351.303 759.136 352.593C757.932 353.883 757.33 355.761 757.33 358.226V371.255H753.417V347.691H757.33V351.045C758.104 349.841 759.151 348.909 760.469 348.25C761.817 347.591 763.293 347.261 764.898 347.261ZM801.82 347.691V371.255H797.907V367.772C797.162 368.976 796.116 369.922 794.768 370.61C793.45 371.269 791.988 371.599 790.382 371.599C788.548 371.599 786.899 371.226 785.437 370.481C783.975 369.707 782.814 368.56 781.954 367.041C781.123 365.522 780.707 363.673 780.707 361.494V347.691H784.577V360.978C784.577 363.3 785.165 365.092 786.34 366.353C787.516 367.586 789.121 368.202 791.156 368.202C793.249 368.202 794.897 367.557 796.101 366.267C797.305 364.977 797.907 363.099 797.907 360.634V347.691H801.82ZM813.2 350.916V364.805C813.2 365.952 813.444 366.769 813.931 367.256C814.419 367.715 815.264 367.944 816.468 367.944H819.349V371.255H815.823C813.645 371.255 812.011 370.753 810.921 369.75C809.832 368.747 809.287 367.098 809.287 364.805V350.916H806.234V347.691H809.287V341.757H813.2V347.691H819.349V350.916H813.2ZM845.59 358.57C845.59 359.315 845.547 360.104 845.461 360.935H826.627C826.771 363.257 827.559 365.077 828.992 366.396C830.454 367.686 832.217 368.331 834.281 368.331C835.973 368.331 837.377 367.944 838.495 367.17C839.642 366.367 840.445 365.307 840.903 363.988H845.117C844.487 366.253 843.225 368.102 841.333 369.535C839.441 370.94 837.091 371.642 834.281 371.642C832.045 371.642 830.039 371.14 828.261 370.137C826.513 369.134 825.137 367.715 824.133 365.88C823.13 364.017 822.628 361.867 822.628 359.43C822.628 356.993 823.116 354.858 824.09 353.023C825.065 351.188 826.427 349.784 828.175 348.809C829.953 347.806 831.988 347.304 834.281 347.304C836.517 347.304 838.495 347.791 840.215 348.766C841.935 349.741 843.254 351.088 844.171 352.808C845.117 354.499 845.59 356.42 845.59 358.57ZM841.548 357.753C841.548 356.262 841.219 354.987 840.559 353.926C839.9 352.837 838.997 352.02 837.85 351.475C836.732 350.902 835.485 350.615 834.109 350.615C832.131 350.615 830.44 351.246 829.035 352.507C827.659 353.768 826.871 355.517 826.67 357.753H841.548ZM859.097 371.642C857.291 371.642 855.672 371.341 854.238 370.739C852.805 370.108 851.673 369.248 850.841 368.159C850.01 367.041 849.551 365.765 849.465 364.332H853.507C853.622 365.507 854.167 366.468 855.141 367.213C856.145 367.958 857.449 368.331 859.054 368.331C860.545 368.331 861.72 368.001 862.58 367.342C863.44 366.683 863.87 365.851 863.87 364.848C863.87 363.816 863.412 363.056 862.494 362.569C861.577 362.053 860.158 361.551 858.237 361.064C856.489 360.605 855.055 360.147 853.937 359.688C852.848 359.201 851.902 358.498 851.099 357.581C850.325 356.635 849.938 355.402 849.938 353.883C849.938 352.679 850.297 351.575 851.013 350.572C851.73 349.569 852.748 348.78 854.066 348.207C855.385 347.605 856.89 347.304 858.581 347.304C861.19 347.304 863.297 347.963 864.902 349.282C866.508 350.601 867.368 352.407 867.482 354.7H863.569C863.483 353.467 862.982 352.478 862.064 351.733C861.176 350.988 859.972 350.615 858.452 350.615C857.048 350.615 855.93 350.916 855.098 351.518C854.267 352.12 853.851 352.908 853.851 353.883C853.851 354.657 854.095 355.302 854.582 355.818C855.098 356.305 855.729 356.707 856.474 357.022C857.248 357.309 858.309 357.638 859.656 358.011C861.348 358.47 862.724 358.928 863.784 359.387C864.845 359.817 865.748 360.476 866.493 361.365C867.267 362.254 867.669 363.415 867.697 364.848C867.697 366.138 867.339 367.299 866.622 368.331C865.906 369.363 864.888 370.18 863.569 370.782C862.279 371.355 860.789 371.642 859.097 371.642ZM874.468 371.513C873.723 371.513 873.092 371.255 872.576 370.739C872.06 370.223 871.802 369.592 871.802 368.847C871.802 368.102 872.06 367.471 872.576 366.955C873.092 366.439 873.723 366.181 874.468 366.181C875.185 366.181 875.787 366.439 876.274 366.955C876.79 367.471 877.048 368.102 877.048 368.847C877.048 369.592 876.79 370.223 876.274 370.739C875.787 371.255 875.185 371.513 874.468 371.513Z" fill="white"/>
<path fill-rule="evenodd" clip-rule="evenodd" d="M203 445V424C203 418.201 205.05 413.251 209.151 409.151C213.251 405.05 218.201 403 224 403H654C659.799 403 664.749 405.05 668.849 409.151C672.95 413.251 675 418.201 675 424V484C675 489.799 672.95 494.749 668.849 498.849C664.749 502.95 659.799 505 654 505H224C218.201 505 213.251 502.95 209.151 498.849C205.05 494.749 203 489.799 203 484V445Z" fill="#326CF9"/>
<path d="M331.65 450.36C331.17 449.48 330.51 448.81 329.67 448.35C328.83 447.89 327.85 447.66 326.73 447.66C325.49 447.66 324.39 447.94 323.43 448.5C322.47 449.06 321.72 449.86 321.18 450.9C320.64 451.94 320.37 453.14 320.37 454.5C320.37 455.9 320.64 457.12 321.18 458.16C321.74 459.2 322.51 460 323.49 460.56C324.47 461.12 325.61 461.4 326.91 461.4C328.51 461.4 329.82 460.98 330.84 460.14C331.86 459.28 332.53 458.09 332.85 456.57H325.65V453.36H336.99V457.02C336.71 458.48 336.11 459.83 335.19 461.07C334.27 462.31 333.08 463.31 331.62 464.07C330.18 464.81 328.56 465.18 326.76 465.18C324.74 465.18 322.91 464.73 321.27 463.83C319.65 462.91 318.37 461.64 317.43 460.02C316.51 458.4 316.05 456.56 316.05 454.5C316.05 452.44 316.51 450.6 317.43 448.98C318.37 447.34 319.65 446.07 321.27 445.17C322.91 444.25 324.73 443.79 326.73 443.79C329.09 443.79 331.14 444.37 332.88 445.53C334.62 446.67 335.82 448.28 336.48 450.36H331.65ZM355.547 456.33C355.547 456.93 355.507 457.47 355.427 457.95H343.277C343.377 459.15 343.797 460.09 344.537 460.77C345.277 461.45 346.187 461.79 347.267 461.79C348.827 461.79 349.937 461.12 350.597 459.78H355.127C354.647 461.38 353.727 462.7 352.367 463.74C351.007 464.76 349.337 465.27 347.357 465.27C345.757 465.27 344.317 464.92 343.037 464.22C341.777 463.5 340.787 462.49 340.067 461.19C339.367 459.89 339.017 458.39 339.017 456.69C339.017 454.97 339.367 453.46 340.067 452.16C340.767 450.86 341.747 449.86 343.007 449.16C344.267 448.46 345.717 448.11 347.357 448.11C348.937 448.11 350.347 448.45 351.587 449.13C352.847 449.81 353.817 450.78 354.497 452.04C355.197 453.28 355.547 454.71 355.547 456.33ZM351.197 455.13C351.177 454.05 350.787 453.19 350.027 452.55C349.267 451.89 348.337 451.56 347.237 451.56C346.197 451.56 345.317 451.88 344.597 452.52C343.897 453.14 343.467 454.01 343.307 455.13H351.197ZM363.503 451.83V459.87C363.503 460.43 363.633 460.84 363.893 461.1C364.173 461.34 364.633 461.46 365.273 461.46H367.223V465H364.583C361.043 465 359.273 463.28 359.273 459.84V451.83H357.293V448.38H359.273V444.27H363.503V448.38H367.223V451.83H363.503ZM384.622 465.21C383.162 465.21 381.842 464.96 380.662 464.46C379.502 463.96 378.582 463.24 377.902 462.3C377.222 461.36 376.872 460.25 376.852 458.97H381.352C381.412 459.83 381.712 460.51 382.252 461.01C382.812 461.51 383.572 461.76 384.532 461.76C385.512 461.76 386.282 461.53 386.842 461.07C387.402 460.59 387.682 459.97 387.682 459.21C387.682 458.59 387.492 458.08 387.112 457.68C386.732 457.28 386.252 456.97 385.672 456.75C385.112 456.51 384.332 456.25 383.332 455.97C381.972 455.57 380.862 455.18 380.002 454.8C379.162 454.4 378.432 453.81 377.812 453.03C377.212 452.23 376.912 451.17 376.912 449.85C376.912 448.61 377.222 447.53 377.842 446.61C378.462 445.69 379.332 444.99 380.452 444.51C381.572 444.01 382.852 443.76 384.292 443.76C386.452 443.76 388.202 444.29 389.542 445.35C390.902 446.39 391.652 447.85 391.792 449.73H387.172C387.132 449.01 386.822 448.42 386.242 447.96C385.682 447.48 384.932 447.24 383.992 447.24C383.172 447.24 382.512 447.45 382.012 447.87C381.532 448.29 381.292 448.9 381.292 449.7C381.292 450.26 381.472 450.73 381.832 451.11C382.212 451.47 382.672 451.77 383.212 452.01C383.772 452.23 384.552 452.49 385.552 452.79C386.912 453.19 388.022 453.59 388.882 453.99C389.742 454.39 390.482 454.99 391.102 455.79C391.722 456.59 392.032 457.64 392.032 458.94C392.032 460.06 391.742 461.1 391.162 462.06C390.582 463.02 389.732 463.79 388.612 464.37C387.492 464.93 386.162 465.21 384.622 465.21ZM400.564 451.83V459.87C400.564 460.43 400.694 460.84 400.954 461.1C401.234 461.34 401.694 461.46 402.334 461.46H404.284V465H401.644C398.104 465 396.334 463.28 396.334 459.84V451.83H394.354V448.38H396.334V444.27H400.564V448.38H404.284V451.83H400.564ZM406.224 456.63C406.224 454.95 406.554 453.46 407.214 452.16C407.894 450.86 408.804 449.86 409.944 449.16C411.104 448.46 412.394 448.11 413.814 448.11C415.054 448.11 416.134 448.36 417.054 448.86C417.994 449.36 418.744 449.99 419.304 450.75V448.38H423.534V465H419.304V462.57C418.764 463.35 418.014 464 417.054 464.52C416.114 465.02 415.024 465.27 413.784 465.27C412.384 465.27 411.104 464.91 409.944 464.19C408.804 463.47 407.894 462.46 407.214 461.16C406.554 459.84 406.224 458.33 406.224 456.63ZM419.304 456.69C419.304 455.67 419.104 454.8 418.704 454.08C418.304 453.34 417.764 452.78 417.084 452.4C416.404 452 415.674 451.8 414.894 451.8C414.114 451.8 413.394 451.99 412.734 452.37C412.074 452.75 411.534 453.31 411.114 454.05C410.714 454.77 410.514 455.63 410.514 456.63C410.514 457.63 410.714 458.51 411.114 459.27C411.534 460.01 412.074 460.58 412.734 460.98C413.414 461.38 414.134 461.58 414.894 461.58C415.674 461.58 416.404 461.39 417.084 461.01C417.764 460.61 418.304 460.05 418.704 459.33C419.104 458.59 419.304 457.71 419.304 456.69ZM431.836 450.96C432.376 450.08 433.076 449.39 433.936 448.89C434.816 448.39 435.816 448.14 436.936 448.14V452.55H435.826C434.506 452.55 433.506 452.86 432.826 453.48C432.166 454.1 431.836 455.18 431.836 456.72V465H427.636V448.38H431.836V450.96ZM444.655 451.83V459.87C444.655 460.43 444.785 460.84 445.045 461.1C445.325 461.34 445.785 461.46 446.425 461.46H448.375V465H445.735C442.195 465 440.425 463.28 440.425 459.84V451.83H438.445V448.38H440.425V444.27H444.655V448.38H448.375V451.83H444.655ZM466.846 456.33C466.846 456.93 466.806 457.47 466.726 457.95H454.576C454.676 459.15 455.096 460.09 455.836 460.77C456.576 461.45 457.486 461.79 458.566 461.79C460.126 461.79 461.236 461.12 461.896 459.78H466.426C465.946 461.38 465.026 462.7 463.666 463.74C462.306 464.76 460.636 465.27 458.656 465.27C457.056 465.27 455.616 464.92 454.336 464.22C453.076 463.5 452.086 462.49 451.366 461.19C450.666 459.89 450.316 458.39 450.316 456.69C450.316 454.97 450.666 453.46 451.366 452.16C452.066 450.86 453.046 449.86 454.306 449.16C455.566 448.46 457.016 448.11 458.656 448.11C460.236 448.11 461.646 448.45 462.886 449.13C464.146 449.81 465.116 450.78 465.796 452.04C466.496 453.28 466.846 454.71 466.846 456.33ZM462.496 455.13C462.476 454.05 462.086 453.19 461.326 452.55C460.566 451.89 459.636 451.56 458.536 451.56C457.496 451.56 456.616 451.88 455.896 452.52C455.196 453.14 454.766 454.01 454.606 455.13H462.496ZM468.832 456.63C468.832 454.95 469.162 453.46 469.822 452.16C470.502 450.86 471.422 449.86 472.582 449.16C473.742 448.46 475.032 448.11 476.452 448.11C477.532 448.11 478.562 448.35 479.542 448.83C480.522 449.29 481.302 449.91 481.882 450.69V442.8H486.142V465H481.882V462.54C481.362 463.36 480.632 464.02 479.692 464.52C478.752 465.02 477.662 465.27 476.422 465.27C475.022 465.27 473.742 464.91 472.582 464.19C471.422 463.47 470.502 462.46 469.822 461.16C469.162 459.84 468.832 458.33 468.832 456.63ZM481.912 456.69C481.912 455.67 481.712 454.8 481.312 454.08C480.912 453.34 480.372 452.78 479.692 452.4C479.012 452 478.282 451.8 477.502 451.8C476.722 451.8 476.002 451.99 475.342 452.37C474.682 452.75 474.142 453.31 473.722 454.05C473.322 454.77 473.122 455.63 473.122 456.63C473.122 457.63 473.322 458.51 473.722 459.27C474.142 460.01 474.682 460.58 475.342 460.98C476.022 461.38 476.742 461.58 477.502 461.58C478.282 461.58 479.012 461.39 479.692 461.01C480.372 460.61 480.912 460.05 481.312 459.33C481.712 458.59 481.912 457.71 481.912 456.69ZM515.302 465H511.102L501.592 450.63V465H497.392V444.03H501.592L511.102 458.43V444.03H515.302V465ZM526.833 465.27C525.233 465.27 523.793 464.92 522.513 464.22C521.233 463.5 520.223 462.49 519.483 461.19C518.763 459.89 518.403 458.39 518.403 456.69C518.403 454.99 518.773 453.49 519.513 452.19C520.273 450.89 521.303 449.89 522.603 449.19C523.903 448.47 525.353 448.11 526.953 448.11C528.553 448.11 530.003 448.47 531.303 449.19C532.603 449.89 533.623 450.89 534.363 452.19C535.123 453.49 535.503 454.99 535.503 456.69C535.503 458.39 535.113 459.89 534.333 461.19C533.573 462.49 532.533 463.5 531.213 464.22C529.913 464.92 528.453 465.27 526.833 465.27ZM526.833 461.61C527.593 461.61 528.303 461.43 528.963 461.07C529.643 460.69 530.183 460.13 530.583 459.39C530.983 458.65 531.183 457.75 531.183 456.69C531.183 455.11 530.763 453.9 529.923 453.06C529.103 452.2 528.093 451.77 526.893 451.77C525.693 451.77 524.683 452.2 523.863 453.06C523.063 453.9 522.663 455.11 522.663 456.69C522.663 458.27 523.053 459.49 523.833 460.35C524.633 461.19 525.633 461.61 526.833 461.61ZM561.624 448.38L556.764 465H552.234L549.204 453.39L546.174 465H541.614L536.724 448.38H540.984L543.924 461.04L547.104 448.38H551.544L554.664 461.01L557.604 448.38H561.624Z" fill="white"/>
<path d="M248.082 562.55C248.082 560.397 248.513 558.522 249.374 556.926C250.236 555.305 251.426 554.051 252.946 553.164C254.492 552.277 256.252 551.834 258.228 551.834C260.787 551.834 262.89 552.455 264.536 553.696C266.208 554.937 267.31 556.66 267.842 558.864H264.118C263.764 557.597 263.067 556.597 262.028 555.862C261.015 555.127 259.748 554.76 258.228 554.76C256.252 554.76 254.656 555.444 253.44 556.812C252.224 558.155 251.616 560.067 251.616 562.55C251.616 565.058 252.224 566.996 253.44 568.364C254.656 569.732 256.252 570.416 258.228 570.416C259.748 570.416 261.015 570.061 262.028 569.352C263.042 568.643 263.738 567.629 264.118 566.312H267.842C267.285 568.44 266.17 570.15 264.498 571.442C262.826 572.709 260.736 573.342 258.228 573.342C256.252 573.342 254.492 572.899 252.946 572.012C251.426 571.125 250.236 569.871 249.374 568.25C248.513 566.629 248.082 564.729 248.082 562.55ZM275.914 555.558C276.522 554.367 277.384 553.443 278.498 552.784C279.638 552.125 281.019 551.796 282.64 551.796V555.368H281.728C277.852 555.368 275.914 557.471 275.914 561.676V573H272.456V552.176H275.914V555.558ZM305.632 561.79C305.632 562.449 305.594 563.145 305.518 563.88H288.874C289.001 565.932 289.697 567.541 290.964 568.706C292.256 569.846 293.814 570.416 295.638 570.416C297.133 570.416 298.374 570.074 299.362 569.39C300.375 568.681 301.085 567.743 301.49 566.578H305.214C304.657 568.579 303.542 570.213 301.87 571.48C300.198 572.721 298.121 573.342 295.638 573.342C293.662 573.342 291.889 572.899 290.318 572.012C288.773 571.125 287.557 569.871 286.67 568.25C285.783 566.603 285.34 564.703 285.34 562.55C285.34 560.397 285.771 558.509 286.632 556.888C287.493 555.267 288.697 554.025 290.242 553.164C291.813 552.277 293.611 551.834 295.638 551.834C297.614 551.834 299.362 552.265 300.882 553.126C302.402 553.987 303.567 555.178 304.378 556.698C305.214 558.193 305.632 559.89 305.632 561.79ZM302.06 561.068C302.06 559.751 301.769 558.623 301.186 557.686C300.603 556.723 299.805 556.001 298.792 555.52C297.804 555.013 296.702 554.76 295.486 554.76C293.738 554.76 292.243 555.317 291.002 556.432C289.786 557.547 289.089 559.092 288.912 561.068H302.06ZM308.905 562.512C308.905 560.384 309.335 558.522 310.197 556.926C311.058 555.305 312.236 554.051 313.731 553.164C315.251 552.277 316.935 551.834 318.785 551.834C320.609 551.834 322.192 552.227 323.535 553.012C324.877 553.797 325.878 554.785 326.537 555.976V552.176H330.033V573H326.537V569.124C325.853 570.34 324.827 571.353 323.459 572.164C322.116 572.949 320.545 573.342 318.747 573.342C316.897 573.342 315.225 572.886 313.731 571.974C312.236 571.062 311.058 569.783 310.197 568.136C309.335 566.489 308.905 564.615 308.905 562.512ZM326.537 562.55C326.537 560.979 326.22 559.611 325.587 558.446C324.953 557.281 324.092 556.394 323.003 555.786C321.939 555.153 320.761 554.836 319.469 554.836C318.177 554.836 316.999 555.14 315.935 555.748C314.871 556.356 314.022 557.243 313.389 558.408C312.755 559.573 312.439 560.941 312.439 562.512C312.439 564.108 312.755 565.501 313.389 566.692C314.022 567.857 314.871 568.757 315.935 569.39C316.999 569.998 318.177 570.302 319.469 570.302C320.761 570.302 321.939 569.998 323.003 569.39C324.092 568.757 324.953 567.857 325.587 566.692C326.22 565.501 326.537 564.121 326.537 562.55ZM340.094 555.026V567.3C340.094 568.313 340.31 569.035 340.74 569.466C341.171 569.871 341.918 570.074 342.982 570.074H345.528V573H342.412C340.487 573 339.043 572.557 338.08 571.67C337.118 570.783 336.636 569.327 336.636 567.3V555.026H333.938V552.176H336.636V546.932H340.094V552.176H345.528V555.026H340.094ZM358.8 573.342C356.849 573.342 355.076 572.899 353.48 572.012C351.909 571.125 350.668 569.871 349.756 568.25C348.869 566.603 348.426 564.703 348.426 562.55C348.426 560.422 348.882 558.547 349.794 556.926C350.731 555.279 351.998 554.025 353.594 553.164C355.19 552.277 356.976 551.834 358.952 551.834C360.928 551.834 362.714 552.277 364.31 553.164C365.906 554.025 367.16 555.267 368.072 556.888C369.009 558.509 369.478 560.397 369.478 562.55C369.478 564.703 368.997 566.603 368.034 568.25C367.097 569.871 365.817 571.125 364.196 572.012C362.575 572.899 360.776 573.342 358.8 573.342ZM358.8 570.302C360.041 570.302 361.207 570.011 362.296 569.428C363.385 568.845 364.259 567.971 364.918 566.806C365.602 565.641 365.944 564.222 365.944 562.55C365.944 560.878 365.615 559.459 364.956 558.294C364.297 557.129 363.436 556.267 362.372 555.71C361.308 555.127 360.155 554.836 358.914 554.836C357.647 554.836 356.482 555.127 355.418 555.71C354.379 556.267 353.543 557.129 352.91 558.294C352.277 559.459 351.96 560.878 351.96 562.55C351.96 564.247 352.264 565.679 352.872 566.844C353.505 568.009 354.341 568.883 355.38 569.466C356.419 570.023 357.559 570.302 358.8 570.302ZM377.483 555.558C378.091 554.367 378.952 553.443 380.067 552.784C381.207 552.125 382.587 551.796 384.209 551.796V555.368H383.297C379.421 555.368 377.483 557.471 377.483 561.676V573H374.025V552.176H377.483V555.558ZM395.572 573.342C393.976 573.342 392.545 573.076 391.278 572.544C390.012 571.987 389.011 571.227 388.276 570.264C387.542 569.276 387.136 568.149 387.06 566.882H390.632C390.734 567.921 391.215 568.769 392.076 569.428C392.963 570.087 394.116 570.416 395.534 570.416C396.852 570.416 397.89 570.125 398.65 569.542C399.41 568.959 399.79 568.225 399.79 567.338C399.79 566.426 399.385 565.755 398.574 565.324C397.764 564.868 396.51 564.425 394.812 563.994C393.267 563.589 392 563.183 391.012 562.778C390.05 562.347 389.214 561.727 388.504 560.916C387.82 560.08 387.478 558.991 387.478 557.648C387.478 556.584 387.795 555.609 388.428 554.722C389.062 553.835 389.961 553.139 391.126 552.632C392.292 552.1 393.622 551.834 395.116 551.834C397.422 551.834 399.284 552.417 400.702 553.582C402.121 554.747 402.881 556.343 402.982 558.37H399.524C399.448 557.281 399.005 556.407 398.194 555.748C397.409 555.089 396.345 554.76 395.002 554.76C393.761 554.76 392.773 555.026 392.038 555.558C391.304 556.09 390.936 556.787 390.936 557.648C390.936 558.332 391.152 558.902 391.582 559.358C392.038 559.789 392.596 560.143 393.254 560.422C393.938 560.675 394.876 560.967 396.066 561.296C397.561 561.701 398.777 562.107 399.714 562.512C400.652 562.892 401.45 563.475 402.108 564.26C402.792 565.045 403.147 566.071 403.172 567.338C403.172 568.478 402.856 569.504 402.222 570.416C401.589 571.328 400.69 572.05 399.524 572.582C398.384 573.089 397.067 573.342 395.572 573.342ZM428.521 551.796C430.091 551.796 431.51 552.138 432.777 552.822C434.043 553.481 435.031 554.481 435.741 555.824C436.475 557.167 436.843 558.801 436.843 560.726V573H433.423V561.22C433.423 559.143 432.903 557.559 431.865 556.47C430.826 555.355 429.407 554.798 427.609 554.798C425.785 554.798 424.328 555.368 423.239 556.508C422.175 557.648 421.643 559.307 421.643 561.486V573H418.185V544.88H421.643V555.14C422.327 554.076 423.264 553.253 424.455 552.67C425.671 552.087 427.026 551.796 428.521 551.796ZM441.199 562.512C441.199 560.384 441.63 558.522 442.491 556.926C443.353 555.305 444.531 554.051 446.025 553.164C447.545 552.277 449.23 551.834 451.079 551.834C452.903 551.834 454.487 552.227 455.829 553.012C457.172 553.797 458.173 554.785 458.831 555.976V552.176H462.327V573H458.831V569.124C458.147 570.34 457.121 571.353 455.753 572.164C454.411 572.949 452.84 573.342 451.041 573.342C449.192 573.342 447.52 572.886 446.025 571.974C444.531 571.062 443.353 569.783 442.491 568.136C441.63 566.489 441.199 564.615 441.199 562.512ZM458.831 562.55C458.831 560.979 458.515 559.611 457.881 558.446C457.248 557.281 456.387 556.394 455.297 555.786C454.233 555.153 453.055 554.836 451.763 554.836C450.471 554.836 449.293 555.14 448.229 555.748C447.165 556.356 446.317 557.243 445.683 558.408C445.05 559.573 444.733 560.941 444.733 562.512C444.733 564.108 445.05 565.501 445.683 566.692C446.317 567.857 447.165 568.757 448.229 569.39C449.293 569.998 450.471 570.302 451.763 570.302C453.055 570.302 454.233 569.998 455.297 569.39C456.387 568.757 457.248 567.857 457.881 566.692C458.515 565.501 458.831 564.121 458.831 562.55ZM475.923 569.808L482.383 552.176H486.069L477.899 573H473.871L465.701 552.176H469.425L475.923 569.808ZM508.472 561.79C508.472 562.449 508.434 563.145 508.358 563.88H491.714C491.841 565.932 492.537 567.541 493.804 568.706C495.096 569.846 496.654 570.416 498.478 570.416C499.973 570.416 501.214 570.074 502.202 569.39C503.215 568.681 503.925 567.743 504.33 566.578H508.054C507.497 568.579 506.382 570.213 504.71 571.48C503.038 572.721 500.961 573.342 498.478 573.342C496.502 573.342 494.729 572.899 493.158 572.012C491.613 571.125 490.397 569.871 489.51 568.25C488.623 566.603 488.18 564.703 488.18 562.55C488.18 560.397 488.611 558.509 489.472 556.888C490.333 555.267 491.537 554.025 493.082 553.164C494.653 552.277 496.451 551.834 498.478 551.834C500.454 551.834 502.202 552.265 503.722 553.126C505.242 553.987 506.407 555.178 507.218 556.698C508.054 558.193 508.472 559.89 508.472 561.79ZM504.9 561.068C504.9 559.751 504.609 558.623 504.026 557.686C503.443 556.723 502.645 556.001 501.632 555.52C500.644 555.013 499.542 554.76 498.326 554.76C496.578 554.76 495.083 555.317 493.842 556.432C492.626 557.547 491.929 559.092 491.752 561.068H504.9ZM521.875 562.512C521.875 560.384 522.306 558.522 523.167 556.926C524.029 555.305 525.207 554.051 526.701 553.164C528.221 552.277 529.906 551.834 531.755 551.834C533.579 551.834 535.163 552.227 536.505 553.012C537.848 553.797 538.849 554.785 539.507 555.976V552.176H543.003V573H539.507V569.124C538.823 570.34 537.797 571.353 536.429 572.164C535.087 572.949 533.516 573.342 531.717 573.342C529.868 573.342 528.196 572.886 526.701 571.974C525.207 571.062 524.029 569.783 523.167 568.136C522.306 566.489 521.875 564.615 521.875 562.512ZM539.507 562.55C539.507 560.979 539.191 559.611 538.557 558.446C537.924 557.281 537.063 556.394 535.973 555.786C534.909 555.153 533.731 554.836 532.439 554.836C531.147 554.836 529.969 555.14 528.905 555.748C527.841 556.356 526.993 557.243 526.359 558.408C525.726 559.573 525.409 560.941 525.409 562.512C525.409 564.108 525.726 565.501 526.359 566.692C526.993 567.857 527.841 568.757 528.905 569.39C529.969 569.998 531.147 570.302 532.439 570.302C533.731 570.302 534.909 569.998 535.973 569.39C537.063 568.757 537.924 567.857 538.557 566.692C539.191 565.501 539.507 564.121 539.507 562.55ZM552.305 544.88V573H548.847V544.88H552.305ZM561.656 555.558C562.264 554.367 563.126 553.443 564.24 552.784C565.38 552.125 566.761 551.796 568.382 551.796V555.368H567.47C563.594 555.368 561.656 557.471 561.656 561.676V573H558.198V552.176H561.656V555.558ZM591.374 561.79C591.374 562.449 591.336 563.145 591.26 563.88H574.616C574.743 565.932 575.44 567.541 576.706 568.706C577.998 569.846 579.556 570.416 581.38 570.416C582.875 570.416 584.116 570.074 585.104 569.39C586.118 568.681 586.827 567.743 587.232 566.578H590.956C590.399 568.579 589.284 570.213 587.612 571.48C585.94 572.721 583.863 573.342 581.38 573.342C579.404 573.342 577.631 572.899 576.06 572.012C574.515 571.125 573.299 569.871 572.412 568.25C571.526 566.603 571.082 564.703 571.082 562.55C571.082 560.397 571.513 558.509 572.374 556.888C573.236 555.267 574.439 554.025 575.984 553.164C577.555 552.277 579.354 551.834 581.38 551.834C583.356 551.834 585.104 552.265 586.624 553.126C588.144 553.987 589.31 555.178 590.12 556.698C590.956 558.193 591.374 559.89 591.374 561.79ZM587.802 561.068C587.802 559.751 587.511 558.623 586.928 557.686C586.346 556.723 585.548 556.001 584.534 555.52C583.546 555.013 582.444 554.76 581.228 554.76C579.48 554.76 577.986 555.317 576.744 556.432C575.528 557.547 574.832 559.092 574.654 561.068H587.802ZM594.647 562.512C594.647 560.384 595.077 558.522 595.939 556.926C596.8 555.305 597.978 554.051 599.473 553.164C600.993 552.277 602.677 551.834 604.527 551.834C606.351 551.834 607.934 552.227 609.277 553.012C610.619 553.797 611.62 554.785 612.279 555.976V552.176H615.775V573H612.279V569.124C611.595 570.34 610.569 571.353 609.201 572.164C607.858 572.949 606.287 573.342 604.489 573.342C602.639 573.342 600.967 572.886 599.473 571.974C597.978 571.062 596.8 569.783 595.939 568.136C595.077 566.489 594.647 564.615 594.647 562.512ZM612.279 562.55C612.279 560.979 611.962 559.611 611.329 558.446C610.695 557.281 609.834 556.394 608.745 555.786C607.681 555.153 606.503 554.836 605.211 554.836C603.919 554.836 602.741 555.14 601.677 555.748C600.613 556.356 599.764 557.243 599.131 558.408C598.497 559.573 598.181 560.941 598.181 562.512C598.181 564.108 598.497 565.501 599.131 566.692C599.764 567.857 600.613 568.757 601.677 569.39C602.741 569.998 603.919 570.302 605.211 570.302C606.503 570.302 607.681 569.998 608.745 569.39C609.834 568.757 610.695 567.857 611.329 566.692C611.962 565.501 612.279 564.121 612.279 562.55ZM620.326 562.512C620.326 560.384 620.757 558.522 621.618 556.926C622.48 555.305 623.658 554.051 625.152 553.164C626.672 552.277 628.37 551.834 630.244 551.834C631.866 551.834 633.373 552.214 634.766 552.974C636.16 553.709 637.224 554.684 637.958 555.9V544.88H641.454V573H637.958V569.086C637.274 570.327 636.261 571.353 634.918 572.164C633.576 572.949 632.005 573.342 630.206 573.342C628.357 573.342 626.672 572.886 625.152 571.974C623.658 571.062 622.48 569.783 621.618 568.136C620.757 566.489 620.326 564.615 620.326 562.512ZM637.958 562.55C637.958 560.979 637.642 559.611 637.008 558.446C636.375 557.281 635.514 556.394 634.424 555.786C633.36 555.153 632.182 554.836 630.89 554.836C629.598 554.836 628.42 555.14 627.356 555.748C626.292 556.356 625.444 557.243 624.81 558.408C624.177 559.573 623.86 560.941 623.86 562.512C623.86 564.108 624.177 565.501 624.81 566.692C625.444 567.857 626.292 568.757 627.356 569.39C628.42 569.998 629.598 570.302 630.89 570.302C632.182 570.302 633.36 569.998 634.424 569.39C635.514 568.757 636.375 567.857 637.008 566.692C637.642 565.501 637.958 564.121 637.958 562.55ZM665.234 552.176L652.694 582.804H649.122L653.226 572.772L644.828 552.176H648.666L655.202 569.048L661.662 552.176H665.234ZM686.213 573.342C684.617 573.342 683.186 573.076 681.919 572.544C680.652 571.987 679.652 571.227 678.917 570.264C678.182 569.276 677.777 568.149 677.701 566.882H681.273C681.374 567.921 681.856 568.769 682.717 569.428C683.604 570.087 684.756 570.416 686.175 570.416C687.492 570.416 688.531 570.125 689.291 569.542C690.051 568.959 690.431 568.225 690.431 567.338C690.431 566.426 690.026 565.755 689.215 565.324C688.404 564.868 687.15 564.425 685.453 563.994C683.908 563.589 682.641 563.183 681.653 562.778C680.69 562.347 679.854 561.727 679.145 560.916C678.461 560.08 678.119 558.991 678.119 557.648C678.119 556.584 678.436 555.609 679.069 554.722C679.702 553.835 680.602 553.139 681.767 552.632C682.932 552.1 684.262 551.834 685.757 551.834C688.062 551.834 689.924 552.417 691.343 553.582C692.762 554.747 693.522 556.343 693.623 558.37H690.165C690.089 557.281 689.646 556.407 688.835 555.748C688.05 555.089 686.986 554.76 685.643 554.76C684.402 554.76 683.414 555.026 682.679 555.558C681.944 556.09 681.577 556.787 681.577 557.648C681.577 558.332 681.792 558.902 682.223 559.358C682.679 559.789 683.236 560.143 683.895 560.422C684.579 560.675 685.516 560.967 686.707 561.296C688.202 561.701 689.418 562.107 690.355 562.512C691.292 562.892 692.09 563.475 692.749 564.26C693.433 565.045 693.788 566.071 693.813 567.338C693.813 568.478 693.496 569.504 692.863 570.416C692.23 571.328 691.33 572.05 690.165 572.582C689.025 573.089 687.708 573.342 686.213 573.342ZM702.913 555.026V567.3C702.913 568.313 703.128 569.035 703.559 569.466C703.989 569.871 704.737 570.074 705.801 570.074H708.347V573H705.231C703.305 573 701.861 572.557 700.899 571.67C699.936 570.783 699.455 569.327 699.455 567.3V555.026H696.757V552.176H699.455V546.932H702.913V552.176H708.347V555.026H702.913ZM711.244 562.512C711.244 560.384 711.675 558.522 712.536 556.926C713.398 555.305 714.576 554.051 716.07 553.164C717.59 552.277 719.275 551.834 721.124 551.834C722.948 551.834 724.532 552.227 725.874 553.012C727.217 553.797 728.218 554.785 728.876 555.976V552.176H732.372V573H728.876V569.124C728.192 570.34 727.166 571.353 725.798 572.164C724.456 572.949 722.885 573.342 721.086 573.342C719.237 573.342 717.565 572.886 716.07 571.974C714.576 571.062 713.398 569.783 712.536 568.136C711.675 566.489 711.244 564.615 711.244 562.512ZM728.876 562.55C728.876 560.979 728.56 559.611 727.926 558.446C727.293 557.281 726.432 556.394 725.342 555.786C724.278 555.153 723.1 554.836 721.808 554.836C720.516 554.836 719.338 555.14 718.274 555.748C717.21 556.356 716.362 557.243 715.728 558.408C715.095 559.573 714.778 560.941 714.778 562.512C714.778 564.108 715.095 565.501 715.728 566.692C716.362 567.857 717.21 568.757 718.274 569.39C719.338 569.998 720.516 570.302 721.808 570.302C723.1 570.302 724.278 569.998 725.342 569.39C726.432 568.757 727.293 567.857 727.926 566.692C728.56 565.501 728.876 564.121 728.876 562.55ZM741.674 555.558C742.282 554.367 743.143 553.443 744.258 552.784C745.398 552.125 746.779 551.796 748.4 551.796V555.368H747.488C743.612 555.368 741.674 557.471 741.674 561.676V573H738.216V552.176H741.674V555.558ZM756.61 555.026V567.3C756.61 568.313 756.825 569.035 757.256 569.466C757.686 569.871 758.434 570.074 759.498 570.074H762.044V573H758.928C757.002 573 755.558 572.557 754.596 571.67C753.633 570.783 753.152 569.327 753.152 567.3V555.026H750.454V552.176H753.152V546.932H756.61V552.176H762.044V555.026H756.61ZM785.234 561.79C785.234 562.449 785.196 563.145 785.12 563.88H768.476C768.602 565.932 769.299 567.541 770.566 568.706C771.858 569.846 773.416 570.416 775.24 570.416C776.734 570.416 777.976 570.074 778.964 569.39C779.977 568.681 780.686 567.743 781.092 566.578H784.816C784.258 568.579 783.144 570.213 781.472 571.48C779.8 572.721 777.722 573.342 775.24 573.342C773.264 573.342 771.49 572.899 769.92 572.012C768.374 571.125 767.158 569.871 766.272 568.25C765.385 566.603 764.942 564.703 764.942 562.55C764.942 560.397 765.372 558.509 766.234 556.888C767.095 555.267 768.298 554.025 769.844 553.164C771.414 552.277 773.213 551.834 775.24 551.834C777.216 551.834 778.964 552.265 780.484 553.126C782.004 553.987 783.169 555.178 783.98 556.698C784.816 558.193 785.234 559.89 785.234 561.79ZM781.662 561.068C781.662 559.751 781.37 558.623 780.788 557.686C780.205 556.723 779.407 556.001 778.394 555.52C777.406 555.013 776.304 554.76 775.088 554.76C773.34 554.76 771.845 555.317 770.604 556.432C769.388 557.547 768.691 559.092 768.514 561.068H781.662ZM788.506 562.512C788.506 560.384 788.937 558.522 789.798 556.926C790.659 555.305 791.837 554.051 793.332 553.164C794.852 552.277 796.549 551.834 798.424 551.834C800.045 551.834 801.553 552.214 802.946 552.974C804.339 553.709 805.403 554.684 806.138 555.9V544.88H809.634V573H806.138V569.086C805.454 570.327 804.441 571.353 803.098 572.164C801.755 572.949 800.185 573.342 798.386 573.342C796.537 573.342 794.852 572.886 793.332 571.974C791.837 571.062 790.659 569.783 789.798 568.136C788.937 566.489 788.506 564.615 788.506 562.512ZM806.138 562.55C806.138 560.979 805.821 559.611 805.188 558.446C804.555 557.281 803.693 556.394 802.604 555.786C801.54 555.153 800.362 554.836 799.07 554.836C797.778 554.836 796.6 555.14 795.536 555.748C794.472 556.356 793.623 557.243 792.99 558.408C792.357 559.573 792.04 560.941 792.04 562.512C792.04 564.108 792.357 565.501 792.99 566.692C793.623 567.857 794.472 568.757 795.536 569.39C796.6 569.998 797.778 570.302 799.07 570.302C800.362 570.302 801.54 569.998 802.604 569.39C803.693 568.757 804.555 567.857 805.188 566.692C805.821 565.501 806.138 564.121 806.138 562.55Z" fill="#707070"/>
<path d="M123.026 551.302V545.26H133.552V573H126.788V551.302H123.026ZM137.997 558.75C137.997 554.393 138.833 550.96 140.505 548.452C142.202 545.944 144.926 544.69 148.675 544.69C152.424 544.69 155.135 545.944 156.807 548.452C158.504 550.96 159.353 554.393 159.353 558.75C159.353 563.158 158.504 566.616 156.807 569.124C155.135 571.632 152.424 572.886 148.675 572.886C144.926 572.886 142.202 571.632 140.505 569.124C138.833 566.616 137.997 563.158 137.997 558.75ZM152.969 558.75C152.969 556.191 152.69 554.228 152.133 552.86C151.576 551.467 150.423 550.77 148.675 550.77C146.927 550.77 145.774 551.467 145.217 552.86C144.66 554.228 144.381 556.191 144.381 558.75C144.381 560.473 144.482 561.904 144.685 563.044C144.888 564.159 145.293 565.071 145.901 565.78C146.534 566.464 147.459 566.806 148.675 566.806C149.891 566.806 150.803 566.464 151.411 565.78C152.044 565.071 152.462 564.159 152.665 563.044C152.868 561.904 152.969 560.473 152.969 558.75ZM162.786 558.75C162.786 554.393 163.622 550.96 165.294 548.452C166.992 545.944 169.715 544.69 173.464 544.69C177.214 544.69 179.924 545.944 181.596 548.452C183.294 550.96 184.142 554.393 184.142 558.75C184.142 563.158 183.294 566.616 181.596 569.124C179.924 571.632 177.214 572.886 173.464 572.886C169.715 572.886 166.992 571.632 165.294 569.124C163.622 566.616 162.786 563.158 162.786 558.75ZM177.758 558.75C177.758 556.191 177.48 554.228 176.922 552.86C176.365 551.467 175.212 550.77 173.464 550.77C171.716 550.77 170.564 551.467 170.006 552.86C169.449 554.228 169.17 556.191 169.17 558.75C169.17 560.473 169.272 561.904 169.474 563.044C169.677 564.159 170.082 565.071 170.69 565.78C171.324 566.464 172.248 566.806 173.464 566.806C174.68 566.806 175.592 566.464 176.2 565.78C176.834 565.071 177.252 564.159 177.454 563.044C177.657 561.904 177.758 560.473 177.758 558.75ZM187.575 558.75C187.575 554.393 188.411 550.96 190.083 548.452C191.781 545.944 194.504 544.69 198.253 544.69C202.003 544.69 204.713 545.944 206.385 548.452C208.083 550.96 208.931 554.393 208.931 558.75C208.931 563.158 208.083 566.616 206.385 569.124C204.713 571.632 202.003 572.886 198.253 572.886C194.504 572.886 191.781 571.632 190.083 569.124C188.411 566.616 187.575 563.158 187.575 558.75ZM202.547 558.75C202.547 556.191 202.269 554.228 201.711 552.86C201.154 551.467 200.001 550.77 198.253 550.77C196.505 550.77 195.353 551.467 194.795 552.86C194.238 554.228 193.959 556.191 193.959 558.75C193.959 560.473 194.061 561.904 194.263 563.044C194.466 564.159 194.871 565.071 195.479 565.78C196.113 566.464 197.037 566.806 198.253 566.806C199.469 566.806 200.381 566.464 200.989 565.78C201.623 565.071 202.041 564.159 202.243 563.044C202.446 561.904 202.547 560.473 202.547 558.75ZM232.276 562.626H225.664V569.39H219.508V562.626H212.896V556.812H219.508V550.01H225.664V556.812H232.276V562.626Z" fill="white"/>
<path fill-rule="evenodd" clip-rule="evenodd" d="M81.8292 548.765C87.9396 548.765 92.8931 553.719 92.8931 559.829C92.8931 565.939 87.9396 570.893 81.8292 570.893C75.7186 570.893 70.7651 565.939 70.7651 559.829C70.7651 553.719 75.7186 548.765 81.8292 548.765Z" fill="#0FC65C"/>
<path opacity="0.24" fill-rule="evenodd" clip-rule="evenodd" d="M81.5 541C91.7173 541 100 549.283 100 559.5C100 569.717 91.7173 578 81.5 578C71.2827 578 63 569.717 63 559.5C63 549.283 71.2827 541 81.5 541Z" fill="#0FC65C"/>
</svg>
